# xmcd
# 
# Track frame offsets:
#     150
#     23894
#     41866
#     64383
#     88209
#     112092
#     146049
#     160928
#     185125
#     210113
# 
# Disc length: 3053
# 
# Revision: 0
# Processed by: cddbd v1.5.2PL0 Copyright (c) Steve Scherf et al.
# Submitted via: BonkEnc v1.0.8
# 
DISCID=960beb0a
DTITLE=Avishai Cohen - Continuo
DYEAR=2006
DGENRE=Jazz
TTITLE0=Nu Nu
TTITLE1=Elli
TTITLE2=One for Mark
TTITLE3=Ani Maamin
TTITLE4=Samuel
TTITLE5=Emotional Storm
TTITLE6=Calm
TTITLE7=Arava
TTITLE8=Smash
TTITLE9=Continuo
EXTD=
EXTT0=
EXTT1=
EXTT2=
EXTT3=
EXTT4=
EXTT5=
EXTT6=
EXTT7=
EXTT8=
EXTT9=
PLAYORDER=
